<svg width="100" height="100" viewBox="0 0 100 100" fill="none" xmlns="http://www.w3.org/2000/svg">
<g id="bar-chart-line-fill">
<path id="v2 (Stroke)" d="M68.75 12.5C68.75 9.04822 71.5482 6.25 75 6.25H87.5C90.9518 6.25 93.75 9.04823 93.75 12.5V87.5H96.875C98.6009 87.5 100 88.8991 100 90.625C100 92.3509 98.6009 93.75 96.875 93.75H3.125C1.39911 93.75 0 92.3509 0 90.625C0 88.8991 1.39911 87.5 3.125 87.5H6.25V68.75C6.25 65.2982 9.04822 62.5 12.5 62.5H25C28.4518 62.5 31.25 65.2982 31.25 68.75V87.5H37.5V43.75C37.5 40.2982 40.2982 37.5 43.75 37.5H56.25C59.7018 37.5 62.5 40.2982 62.5 43.75V87.5H68.75V12.5Z" fill="#FF5301"/>
</g>
</svg>
