<svg width="100" height="100" viewBox="0 0 100 100" fill="none" xmlns="http://www.w3.org/2000/svg">
<g id="Customer Support" clip-path="url(#clip0_1056_2359)">
<path id="icon" fill-rule="evenodd" clip-rule="evenodd" d="M49.904 10.7179C46.9161 10.6644 43.9472 11.2009 41.1671 12.2967C38.387 13.3926 35.8505 15.0262 33.7029 17.1041C31.5552 19.1819 29.8386 21.6631 28.6516 24.4055C27.4696 27.1361 26.8357 30.0723 26.7857 33.0471V64.2857C26.7857 68.2306 23.5877 71.4286 19.6429 71.4286H10.7143C4.79695 71.4286 0 66.6316 0 60.7143V46.4286C0 40.5112 4.79695 35.7143 10.7143 35.7143H16.0714V32.9236C16.1379 28.5263 17.0719 24.1852 18.8189 20.1493C20.5659 16.1134 23.0922 12.4618 26.2529 9.40386C29.4135 6.34587 33.1466 3.94164 37.238 2.32888C41.2996 0.727864 45.6353 -0.0619228 50 0.00378794C54.3647 -0.0619228 58.7004 0.727864 62.762 2.32888C66.8534 3.94164 70.5865 6.34587 73.7471 9.40386C76.9079 12.4618 79.4343 16.1134 81.1807 20.1493C82.9279 24.1852 83.8614 28.5263 83.9279 32.9236L83.9293 33.0045L83.9286 35.7143H89.2857C95.2029 35.7143 100 40.5112 100 46.4286V60.7143C100 66.6316 95.2029 71.4286 89.2857 71.4286H83.9286V75C83.9286 80.2093 81.8593 85.2057 78.175 88.8893C75.0157 92.0486 70.8914 94.0207 66.4947 94.5186C64.6605 97.7893 61.1599 100 57.1429 100H46.4286C40.5112 100 35.7143 95.2029 35.7143 89.2857C35.7143 83.3686 40.5112 78.5714 46.4286 78.5714H57.1429C61.014 78.5714 64.4056 80.6243 66.2884 83.7014C67.9079 83.3286 69.4052 82.5071 70.5991 81.3136C72.2736 79.6393 73.2143 77.3679 73.2143 75V33.0472C73.1643 30.0724 72.5307 27.1361 71.3484 24.4055C70.1614 21.6631 68.4448 19.1819 66.2971 17.1041C64.1495 15.0262 61.613 13.3926 58.8329 12.2967C56.0528 11.2009 53.0839 10.6644 50.096 10.7179C50.032 10.7191 49.968 10.7191 49.904 10.7179Z" fill="url(#paint0_linear_1056_2359)"/>
</g>
<defs>
<linearGradient id="paint0_linear_1056_2359" x1="50" y1="0" x2="50" y2="100" gradientUnits="userSpaceOnUse">
<stop stop-color="#FF4300"/>
<stop offset="1" stop-color="#FF6400"/>
</linearGradient>
<clipPath id="clip0_1056_2359">
<rect width="100" height="100" fill="white"/>
</clipPath>
</defs>
</svg>
